<svg width="61" height="48" viewBox="0 0 61 48" fill="none" xmlns="http://www.w3.org/2000/svg">
<path d="M18.1457 31.4806H28.3354C29.2147 31.4806 29.9274 30.809 29.9274 29.9808C29.9274 29.1521 29.2145 28.4801 28.3354 28.4801H21.9887L27.9442 22.8679C29.2229 21.6629 29.9274 20.0608 29.9274 18.3564C29.9274 16.6523 29.2229 15.0502 27.9442 13.8452C26.6658 12.64 24.9655 11.9766 23.1572 11.9766C21.3487 11.9766 19.6487 12.6402 18.3702 13.8452C17.7484 14.4308 17.7484 15.381 18.3702 15.967C18.9921 16.5526 19.9999 16.5526 20.6217 15.9666C21.2987 15.3284 22.1996 14.9771 23.1572 14.9771C24.1151 14.9771 25.0157 15.3284 25.693 15.967C26.3704 16.6048 26.7432 17.4536 26.7432 18.3564C26.7432 19.2591 26.3704 20.1079 25.693 20.7461L17.0196 28.92C16.5642 29.3488 16.4282 29.9942 16.6743 30.555C16.9211 31.1154 17.5016 31.4806 18.1457 31.4806Z" fill="#111111"/>
<path d="M43.6472 28.4807H42.2943V25.4672C42.2943 24.639 41.5817 23.967 40.7024 23.967C39.8231 23.967 39.1106 24.639 39.1106 25.4672V28.4807H35.2983L42.1547 14.0917C42.5148 13.336 42.1565 12.4479 41.3544 12.1086C40.5523 11.7692 39.6101 12.1067 39.25 12.8623L31.3858 29.3665C31.1647 29.8306 31.2081 30.3689 31.5014 30.7964C31.7949 31.2234 32.2978 31.481 32.8379 31.481H39.1104V34.495C39.1104 35.3232 39.8228 35.9954 40.7021 35.9954C41.5817 35.9954 42.2941 35.3232 42.2941 34.495V31.481H43.647C44.5263 31.481 45.2392 30.8094 45.2392 29.9812C45.2394 29.1526 44.5263 28.4807 43.6472 28.4807Z" fill="#333333"/>
<path d="M60.6577 23.2361C60.3735 22.7721 59.8477 22.4858 59.2792 22.4858H55.5161C55.137 16.8404 52.6246 11.5816 48.3419 7.54605C43.682 3.15465 37.4865 0.736328 30.8966 0.736328C30.0173 0.736328 29.3047 1.40793 29.3047 2.23636C29.3047 3.06521 30.0176 3.73659 30.8966 3.73659C42.2095 3.73659 51.5078 12.0181 52.3252 22.486H48.6733C48.1044 22.486 47.579 22.7723 47.2948 23.2363C47.0101 23.7006 47.0101 24.2725 47.2948 24.7368L52.5974 33.3925C52.8821 33.8568 53.4074 34.1424 53.9759 34.1424C54.5449 34.1424 55.0705 33.8568 55.3547 33.3925L60.6575 24.7368C60.9418 24.2723 60.9418 23.7004 60.6577 23.2361ZM53.9759 29.6413L51.4307 25.4863H56.5219L53.9759 29.6413Z" fill="#111111"/>
<path d="M25.9294 3.73627C26.348 3.73627 26.7587 3.5754 27.055 3.29619C27.351 3.01719 27.5215 2.63014 27.5215 2.23582C27.5215 1.84022 27.3513 1.45403 27.055 1.17504C26.7589 0.894973 26.348 0.735352 25.9294 0.735352C25.5098 0.735352 25.1 0.894973 24.8033 1.17504C24.5072 1.45403 24.3374 1.84108 24.3374 2.23582C24.3374 2.63014 24.5072 3.01719 24.8033 3.29619C25.1 3.5754 25.5098 3.73627 25.9294 3.73627Z" fill="#111111"/>
<path d="M21.1537 3.73627C21.5721 3.73627 21.9831 3.5754 22.2791 3.29619C22.5763 3.01719 22.7457 2.63014 22.7457 2.23582C22.7457 1.84022 22.5763 1.45403 22.2791 1.17504C21.9831 0.894973 21.5721 0.735352 21.1537 0.735352C20.7351 0.735352 20.3244 0.894973 20.0281 1.17504C19.7309 1.45403 19.5615 1.84022 19.5615 2.23582C19.5615 2.63014 19.7309 3.01719 20.0281 3.29619C20.3241 3.5754 20.7351 3.73627 21.1537 3.73627Z" fill="#111111"/>
<path d="M30.8969 44.2353C25.157 44.2353 19.7614 42.1289 15.7027 38.3045C12.0218 34.8356 9.84091 30.3296 9.46721 25.4859H13.1199C13.1204 25.4859 13.1209 25.4859 13.1213 25.4859C14.0006 25.4859 14.7133 24.8143 14.7133 23.9856C14.7133 23.6887 14.6216 23.4114 14.4633 23.1786L9.19546 14.58C8.91144 14.1159 8.38563 13.8301 7.81691 13.8301C7.24819 13.8301 6.7226 14.1159 6.43836 14.58L1.13555 23.2357C0.851302 23.7 0.851302 24.2719 1.13555 24.7362C1.41979 25.2004 1.94538 25.4861 2.5141 25.4861H6.27694C6.65654 31.1321 9.16867 36.3902 13.4512 40.426C18.111 44.8179 24.3066 47.236 30.8966 47.236C31.7759 47.236 32.4884 46.5644 32.4884 45.7355C32.4886 44.9073 31.7762 44.2353 30.8969 44.2353ZM7.81713 18.3306L10.3626 22.4854H5.27164L7.81713 18.3306Z" fill="#111111"/>
<path d="M35.8639 44.2344C35.4453 44.2344 35.0346 44.3953 34.7383 44.6738C34.4422 44.953 34.272 45.3401 34.272 45.7346C34.272 46.13 34.4422 46.5164 34.7383 46.7956C35.0343 47.0752 35.4453 47.2351 35.8639 47.2351C36.2835 47.2351 36.6933 47.0752 36.9902 46.7956C37.2863 46.5164 37.4556 46.1296 37.4556 45.7346C37.4556 45.3401 37.2863 44.953 36.9902 44.6738C36.6933 44.3953 36.2835 44.2344 35.8639 44.2344Z" fill="#111111"/>
<path d="M40.6398 44.2344C40.2202 44.2344 39.8102 44.3953 39.5142 44.6738C39.2172 44.953 39.0479 45.3401 39.0479 45.7346C39.0479 46.1296 39.2174 46.5164 39.5142 46.7956C39.8102 47.0752 40.2202 47.2351 40.6398 47.2351C41.0584 47.2351 41.4694 47.0752 41.7652 46.7956C42.0613 46.5164 42.232 46.1296 42.232 45.7346C42.232 45.3401 42.0615 44.953 41.7652 44.6738C41.4694 44.3953 41.0582 44.2344 40.6398 44.2344Z" fill="#111111"/>
</svg>
