<svg width="85" height="48" viewBox="0 0 85 48" fill="none" xmlns="http://www.w3.org/2000/svg">
<path d="M3.96037 19.5566H3.15089C1.91998 19.5566 0.922363 20.4971 0.922363 21.6568C0.922363 22.8165 1.91998 23.7569 3.15089 23.7569H3.96037C5.19064 23.7569 6.18893 22.8165 6.18893 21.6568C6.18893 20.4971 5.19096 19.5566 3.96037 19.5566Z" fill="#111111"/>
<path d="M22.493 23.7569C23.7236 23.7569 24.7219 22.8165 24.7219 21.6568C24.7219 20.4971 23.7236 19.5566 22.493 19.5566H10.1255C8.89523 19.5566 7.89697 20.4971 7.89697 21.6568C7.89697 22.8165 8.89523 23.7569 10.1255 23.7569H22.493Z" fill="#111111"/>
<path d="M11.5005 15.9601H12.3008C13.532 15.9601 14.5293 15.0196 14.5293 13.8602C14.5293 12.6999 13.532 11.7598 12.3008 11.7598H11.5005C10.2696 11.7598 9.27197 12.7002 9.27197 13.8602C9.27197 15.0196 10.2696 15.9601 11.5005 15.9601Z" fill="#111111"/>
<path d="M24.9308 11.7598H18.4667C17.2354 11.7598 16.2378 12.7002 16.2378 13.8602C16.2378 15.0199 17.2354 15.9601 18.4667 15.9601H24.9308C26.1617 15.9601 27.1593 15.0196 27.1593 13.8602C27.1593 12.6999 26.1617 11.7598 24.9308 11.7598Z" fill="#111111"/>
<path d="M12.3106 27.3535H11.5005C10.2696 27.3535 9.27197 28.294 9.27197 29.454C9.27197 30.6137 10.2696 31.5538 11.5005 31.5538H12.3106C13.5415 31.5538 14.5392 30.6134 14.5392 29.454C14.5392 28.294 13.5415 27.3535 12.3106 27.3535Z" fill="#111111"/>
<path d="M24.9307 27.3535H18.4761C17.2452 27.3535 16.2476 28.294 16.2476 29.454C16.2476 30.6137 17.2452 31.5538 18.4761 31.5538H24.9307C26.1616 31.5538 27.1592 30.6134 27.1592 29.454C27.1592 28.294 26.1616 27.3535 24.9307 27.3535Z" fill="#111111"/>
<path d="M84.2593 23.4686L73.5631 12.4437C73.1414 12.0082 72.5439 11.7602 71.9181 11.7602H59.2721V2.8355C59.2721 1.67551 58.2745 0.735352 57.0436 0.735352H16.4307C15.1998 0.735352 14.2021 1.6758 14.2021 2.8355C14.2021 3.9952 15.1998 4.93565 16.4307 4.93565H54.8147V38.3787H35.5944C34.6318 35.3312 31.6338 33.1023 28.092 33.1023C24.5503 33.1023 21.5517 35.3312 20.59 38.3787H16.4307C15.1998 38.3787 14.2021 39.3189 14.2021 40.4786C14.2021 41.6389 15.1998 42.5787 16.4307 42.5787H20.59C21.5517 45.6256 24.5503 47.8549 28.092 47.8549C31.6338 47.8549 34.6318 45.6256 35.5944 42.5787H57.0433H62.326C63.2887 45.6256 66.2873 47.8549 69.8285 47.8549C73.3709 47.8549 76.3688 45.6256 77.3312 42.5787H82.6143C83.8452 42.5787 84.8428 41.6386 84.8428 40.4786V24.8856C84.8434 24.3617 84.6346 23.8559 84.2593 23.4686ZM28.092 43.6552C26.2338 43.6552 24.7219 42.2304 24.7219 40.4789C24.7219 38.7276 26.2338 37.3026 28.092 37.3026C29.9503 37.3026 31.4622 38.7279 31.4622 40.4789C31.4625 42.2304 29.9503 43.6552 28.092 43.6552ZM69.8288 43.6552C67.9705 43.6552 66.4586 42.2304 66.4586 40.4789C66.4586 38.7276 67.9708 37.3026 69.8288 37.3026C71.6877 37.3026 73.1995 38.7279 73.1995 40.4789C73.1999 42.2304 71.6877 43.6552 69.8288 43.6552ZM77.3318 38.379C76.3694 35.3315 73.3715 33.1026 69.8291 33.1026C66.2877 33.1026 63.2894 35.3315 62.3267 38.379H59.2724V15.9608H70.9367L77.5578 22.7857H64.9344C63.7041 22.7857 62.7065 23.7262 62.7065 24.8859C62.7065 26.0462 63.7041 26.986 64.9344 26.986H80.3864V38.3787H77.3318V38.379Z" fill="#111111"/>
</svg>
